<svg width="29" height="13" viewBox="0 0 29 13" fill="none" xmlns="http://www.w3.org/2000/svg">
<path opacity="0.35" d="M4.62695 0.5H21.627C23.5599 0.5 25.127 2.067 25.127 4V9C25.127 10.933 23.5599 12.5 21.627 12.5H4.62695C2.69396 12.5 1.12695 10.933 1.12695 9V4C1.12695 2.067 2.69396 0.5 4.62695 0.5Z" stroke="white"/>
<path opacity="0.4" d="M26.627 5V9.22034C27.476 8.86291 28.0281 8.0314 28.0281 7.11017C28.0281 6.18894 27.476 5.35744 26.627 5" fill="white"/>
<path d="M2.62695 4C2.62695 2.89543 3.52238 2 4.62695 2H21.627C22.7315 2 23.627 2.89543 23.627 4V9C23.627 10.1046 22.7315 11 21.627 11H4.62695C3.52238 11 2.62695 10.1046 2.62695 9V4Z" fill="white"/>
</svg>
