<svg width="29" height="30" viewBox="0 0 29 30" fill="none" xmlns="http://www.w3.org/2000/svg">
<mask id="mask0_74_1149" style="mask-type:alpha" maskUnits="userSpaceOnUse" x="0" y="0" width="29" height="30">
<rect width="28.125" height="30" fill="#D9D9D9"/>
</mask>
<g mask="url(#mask0_74_1149)">
<path d="M14.0625 18.6877C13.9063 18.6877 13.7598 18.6616 13.623 18.6096C13.4863 18.5575 13.3594 18.4689 13.2422 18.3439L7.85156 12.5939C7.63672 12.3648 7.5293 12.0731 7.5293 11.7189C7.5293 11.3648 7.63672 11.0731 7.85156 10.8439C8.06641 10.6148 8.33984 10.5002 8.67188 10.5002C9.00391 10.5002 9.27734 10.6148 9.49219 10.8439L14.0625 15.7189L18.6328 10.8439C18.8477 10.6148 19.1211 10.5002 19.4531 10.5002C19.7852 10.5002 20.0586 10.6148 20.2734 10.8439C20.4883 11.0731 20.5957 11.3648 20.5957 11.7189C20.5957 12.0731 20.4883 12.3648 20.2734 12.5939L14.8828 18.3439C14.7656 18.4689 14.6387 18.5575 14.502 18.6096C14.3652 18.6616 14.2188 18.6877 14.0625 18.6877Z" fill="#767676"/>
</g>
</svg>
