<svg width="19" height="13" viewBox="0 0 19 13" fill="none" xmlns="http://www.w3.org/2000/svg">
<path d="M10.627 3.5C10.627 2.94772 11.0747 2.5 11.627 2.5H12.627C13.1792 2.5 13.627 2.94772 13.627 3.5V11.5C13.627 12.0523 13.1792 12.5 12.627 12.5H11.627C11.0747 12.5 10.627 12.0523 10.627 11.5V3.5Z" fill="white"/>
<path d="M15.627 1.5C15.627 0.947715 16.0747 0.5 16.627 0.5H17.627C18.1792 0.5 18.627 0.947715 18.627 1.5V11.5C18.627 12.0523 18.1792 12.5 17.627 12.5H16.627C16.0747 12.5 15.627 12.0523 15.627 11.5V1.5Z" fill="white"/>
<path d="M5.62695 7C5.62695 6.44772 6.07467 6 6.62695 6H7.62695C8.17924 6 8.62695 6.44772 8.62695 7V11.5C8.62695 12.0523 8.17924 12.5 7.62695 12.5H6.62695C6.07467 12.5 5.62695 12.0523 5.62695 11.5V7Z" fill="white"/>
<path d="M0.626953 9.5C0.626953 8.94772 1.07467 8.5 1.62695 8.5H2.62695C3.17924 8.5 3.62695 8.94772 3.62695 9.5V11.5C3.62695 12.0523 3.17924 12.5 2.62695 12.5H1.62695C1.07467 12.5 0.626953 12.0523 0.626953 11.5V9.5Z" fill="white"/>
</svg>
