<svg width="12" height="9" viewBox="0 0 12 9" fill="none" xmlns="http://www.w3.org/2000/svg">
<path fill-rule="evenodd" clip-rule="evenodd" d="M5.62724 2.2959C7.26008 2.29597 8.83049 2.93639 10.0139 4.0848C10.103 4.17346 10.2454 4.17234 10.3332 4.08229L11.185 3.20476C11.2295 3.15909 11.2542 3.09722 11.2539 3.03285C11.2535 2.96848 11.228 2.90692 11.1831 2.86178C8.07704 -0.176623 3.17695 -0.176623 0.070941 2.86178C0.0259483 2.90688 0.00042002 2.96843 5.13661e-06 3.0328C-0.000409747 3.09717 0.024323 3.15906 0.0687304 3.20476L0.920806 4.08229C1.00852 4.17247 1.15106 4.17359 1.24012 4.0848C2.42366 2.93632 3.99424 2.2959 5.62724 2.2959ZM5.65071 4.94509C6.54785 4.94503 7.41297 5.28541 8.07798 5.90009C8.16792 5.98732 8.30961 5.98543 8.39729 5.89583L9.24814 5.0183C9.29295 4.97227 9.31781 4.90983 9.31716 4.84495C9.31652 4.78006 9.29042 4.71815 9.2447 4.67306C7.21962 2.75024 4.08351 2.75024 2.05843 4.67306C2.01269 4.71815 1.98659 4.78009 1.98599 4.845C1.98539 4.9099 2.01033 4.97234 2.05524 5.0183L2.90584 5.89583C2.99352 5.98543 3.13521 5.98732 3.22515 5.90009C3.88972 5.28582 4.75416 4.94547 5.65071 4.94509ZM7.38091 6.65789C7.38222 6.72296 7.35716 6.78569 7.31165 6.83128L5.83986 8.34739C5.79672 8.39194 5.7379 8.41702 5.67652 8.41702C5.61515 8.41702 5.55632 8.39194 5.51318 8.34739L4.04115 6.83128C3.99567 6.78566 3.97066 6.7229 3.972 6.65784C3.97335 6.59277 4.00095 6.53115 4.04827 6.48754C4.98821 5.67604 6.36484 5.67604 7.30477 6.48754C7.35207 6.53119 7.37961 6.59282 7.38091 6.65789Z" fill="black"/>
</svg>
